<svg version="1.2" xmlns="http://www.w3.org/2000/svg" xmlns:xlink="http://www.w3.org/1999/xlink" overflow="visible" preserveAspectRatio="none" viewBox="0 0 60.63999938964844 70.33000183105469" width="70" height="82"><g transform="translate(1, 1)"><defs><style>.cls-1_1540847791832{fill:#de3518;}</style></defs><g data-name="Layer 2" id="Layer_2_1540847791832"><g id="icon_1540847791832"><path d="M50.61,38.71A6.93,6.93,0,0,0,57.44,33c0-.1,0-.21.05-.32,0-.29,0-.22-.1-.18a2.42,2.42,0,0,1-.31.13,14.51,14.51,0,0,1-4.86.83h-17a2.41,2.41,0,0,1-1.44-.3c-.06-.06-.09-.06,0,0,.18.51,1.58,4.65,1.58,4.65.31.8,1.05.88,1.69.88Z" class="cls-1_1540847791832" vector-effect="non-scaling-stroke"/><path d="M35.93,39.6c.06.19.87,2.45.87,2.45a4.54,4.54,0,0,0,4.3,3.08h7.28A6.93,6.93,0,0,0,55.26,39c0-.19,0-.13-.16-.06a14.69,14.69,0,0,1-5.11.91s-12,0-12.53,0a2.88,2.88,0,0,1-1.39-.26c-.06,0-.21-.15-.14,0" class="cls-1_1540847791832" vector-effect="non-scaling-stroke"/><path d="M3.26,35.27a5.46,5.46,0,0,1-2-4.43,6.19,6.19,0,0,1,.83-3.1L15.93,38.65a4.68,4.68,0,0,0,6.22-.15c.08-.08.08,0,.07,0s-.38,2.31-.6,3.25a4.7,4.7,0,0,1-7.22,2.45Z" class="cls-1_1540847791832" vector-effect="non-scaling-stroke"/><path d="M25.53,20.43a12.54,12.54,0,0,0-2.18,4.07c-.37,1-.87,1.37-1.56,1.46a2.49,2.49,0,0,1-2.15-.62c-.72-.56-7.47-6-7.93-6.35-.14.14-4,3.49-4,3.49L18.56,31a3.72,3.72,0,0,0,2.69,1c2.5-.39,2.8-2.71,3.24-4.51.12-.5.25-1,.39-1.43,1.63-5.26,4.32-7.78,7.56-9.28.19-.09.08,0,0,.07-1.2,1.29-1.83,3.41-1.61,6.15a43.87,43.87,0,0,0,2.07,8,1.67,1.67,0,0,0,1.7,1.22h17.1a6.83,6.83,0,0,0,6.89-6c0-.16,0-.14-.16-.06a14.87,14.87,0,0,1-5.11.78s-14.72,0-17.64,0c-2.41,0-2.89-3.15-2.93-3.89-.36-4.5,1.9-6.49,1.9-6.49a3.21,3.21,0,0,1,2.7-1.19s.11,0,0,0l-2.06-1.47a1.64,1.64,0,0,0-1.74-.26l-3.34,1.38c-.28.12-.59-.06-.85-.2a.77.77,0,0,0-.73,0s-3.45,1.77-4.65,2.3a2.24,2.24,0,0,1-2.65-.68c-.11-.11-.08-.18-.15,0A3.35,3.35,0,0,0,21,17.65a3,3,0,0,0,1.2,2.63,3.8,3.8,0,0,0,3.27.07c.17-.05.11,0,0,.08" class="cls-1_1540847791832" vector-effect="non-scaling-stroke"/><path d="M15.65,7.38A7.16,7.16,0,0,0,17.49.19c-.08-.28-.08-.21-.17,0a15.28,15.28,0,0,1-3,3.27L1.49,15A4.66,4.66,0,0,0,0,18.71v3.35c0,.24.08.17.12,0A6.16,6.16,0,0,1,2.2,19.26L15.65,7.38" class="cls-1_1540847791832" vector-effect="non-scaling-stroke"/><path d="M38.5,54.32c-1-3.16-4.09-5-5.74-6.18-.69-.49-3.51-2.38-4.7-4.24A7.19,7.19,0,0,1,28,35.58c.27-.47.21-.32.22-.08,0,1.9,1.12,4.06,4.11,5.93,3.31,2,7.25,5.27,6.41,13.08-.07.62-.17,0-.24-.19" class="cls-1_1540847791832" vector-effect="non-scaling-stroke"/><path d="M23.09,55.31a6.5,6.5,0,0,0-1.29,4.15,6.6,6.6,0,0,0,1.12,3.25c0,.07.13.21,0,.1-6.07-3.67-6-12.32-.95-17.38.06-.07,0,0,0,.08-.35,3.16,2.55,5.8,4.09,7.13,1.22,1,3.31,2.58,4.91,3.74a7.43,7.43,0,0,1,3.3,5.27,2.43,2.43,0,0,0,.38-2.4c-.76-2.69-4.28-4.72-5.23-5.49a19.58,19.58,0,0,1-4.74-4.88c-1.47-2.31-1.3-6.71.15-8.22.13-.14.1-.07.11.09,0,2.29,1.5,3.6,2.48,4.66,1.33,1.44,6,4.65,7.2,5.73a9.7,9.7,0,0,1,1.88,11.8c-1.09,2.17-2.91,4.79-8.13,5.38-.23,0-.19,0-.06-.1a3.73,3.73,0,0,0,2.28-3.81c-.08-2-1.34-3.2-3.35-4.6a10,10,0,0,1-4.15-4.5" class="cls-1_1540847791832" vector-effect="non-scaling-stroke"/><path d="M16.79,37.81c2.59,1.78,5.69,0,6.24-3.14.18-.77.49-2.33.5-2.39s0-.07-.06,0c-1.9,1.52-3.52,1.23-5.42-.09L6.82,23.28s-3.56,3.26-3.9,3.6Z" class="cls-1_1540847791832" vector-effect="non-scaling-stroke"/><path d="M0,28.94c0,.28.08.18.14,0,.28-1.3,1.5-2.41,2.62-3.55,0,0,.1-.12,1.69-1.55S14,15.44,14,15.44a7.92,7.92,0,0,0,2.75-7.5c0-.22-.07-.12-.13,0a22.79,22.79,0,0,1-3,2.9c-3.12,2.73-8.09,7.06-10.78,9.51a13.94,13.94,0,0,0-2,2,4.58,4.58,0,0,0-.83,3Z" class="cls-1_1540847791832" vector-effect="non-scaling-stroke"/><path d="M41.13,63.78a1.67,1.67,0,0,1,0-3.33,1.67,1.67,0,0,1,0,3.33m0-3.64a2,2,0,1,0,2,2,2,2,0,0,0-2-2" class="cls-1_1540847791832" vector-effect="non-scaling-stroke"/><path d="M41.19,61.94h-.47v-.67h.47c.3,0,.39.15.39.33s-.1.34-.39.34m.33.16v0a.52.52,0,0,0,.45-.54c0-.44-.38-.55-.76-.55h-.86v2.2h.37v-1h.47a.32.32,0,0,1,.29.19.84.84,0,0,1,.08.4v.37h.37v-.37c0-.1,0-.22,0-.26a.48.48,0,0,0-.39-.46" class="cls-1_1540847791832" vector-effect="non-scaling-stroke"/></g></g></g></svg>